<svg width="512" height="512" viewBox="0 0 512 512" fill="none" xmlns="http://www.w3.org/2000/svg">
  <!-- Background -->
  <rect width="512" height="512" rx="64" fill="#00D4AA"/>
  
  <!-- Main image frame -->
  <rect x="64" y="128" width="384" height="256" rx="16" fill="white" stroke="#00BCD4" stroke-width="8"/>
  
  <!-- Film strips on sides -->
  <rect x="32" y="96" width="16" height="320" rx="8" fill="#00BCD4"/>
  <rect x="464" y="96" width="16" height="320" rx="8" fill="#00BCD4"/>
  
  <!-- Film strip holes -->
  <rect x="24" y="112" width="8" height="24" rx="4" fill="#00D4AA"/>
  <rect x="24" y="152" width="8" height="24" rx="4" fill="#00D4AA"/>
  <rect x="24" y="192" width="8" height="24" rx="4" fill="#00D4AA"/>
  <rect x="24" y="232" width="8" height="24" rx="4" fill="#00D4AA"/>
  <rect x="24" y="272" width="8" height="24" rx="4" fill="#00D4AA"/>
  <rect x="24" y="312" width="8" height="24" rx="4" fill="#00D4AA"/>
  <rect x="24" y="352" width="8" height="24" rx="4" fill="#00D4AA"/>
  
  <rect x="480" y="112" width="8" height="24" rx="4" fill="#00D4AA"/>
  <rect x="480" y="152" width="8" height="24" rx="4" fill="#00D4AA"/>
  <rect x="480" y="192" width="8" height="24" rx="4" fill="#00D4AA"/>
  <rect x="480" y="232" width="8" height="24" rx="4" fill="#00D4AA"/>
  <rect x="480" y="272" width="8" height="24" rx="4" fill="#00D4AA"/>
  <rect x="480" y="312" width="8" height="24" rx="4" fill="#00D4AA"/>
  <rect x="480" y="352" width="8" height="24" rx="4" fill="#00D4AA"/>
  
  <!-- Sun -->
  <circle cx="160" cy="192" r="24" fill="#00BCD4"/>
  <circle cx="160" cy="192" r="16" fill="white"/>
  
  <!-- Mountains -->
  <path d="M96 320 L160 240 L224 280 L288 200 L352 240 L416 320 Z" fill="#00BCD4"/>
  <path d="M96 320 L160 240 L224 280 L288 200 L352 240 L416 320 Z" fill="#00D4AA" fill-opacity="0.3"/>
</svg>